<?xml version="1.0" encoding="UTF-8" standalone="no"?>
<!-- Generator: Adobe Illustrator 16.0.0, SVG Export Plug-In . SVG Version: 6.00 Build 0)  -->

<svg
   xmlns:dc="http://purl.org/dc/elements/1.1/"
   xmlns:cc="http://creativecommons.org/ns#"
   xmlns:rdf="http://www.w3.org/1999/02/22-rdf-syntax-ns#"
   xmlns:svg="http://www.w3.org/2000/svg"
   xmlns="http://www.w3.org/2000/svg"
   xmlns:sodipodi="http://sodipodi.sourceforge.net/DTD/sodipodi-0.dtd"
   xmlns:inkscape="http://www.inkscape.org/namespaces/inkscape"
   version="1.1"
   id="Capa_1"
   x="0px"
   y="0px"
   width="438.533px"
   height="438.533px"
   viewBox="0 0 438.533 438.533"
   style="enable-background:new 0 0 438.533 438.533;"
   xml:space="preserve"
   sodipodi:docname="002-symbol-1.svg"
   inkscape:version="0.92.2 5c3e80d, 2017-08-06"><metadata
     id="metadata4949"><rdf:RDF><cc:Work
         rdf:about=""><dc:format>image/svg+xml</dc:format><dc:type
           rdf:resource="http://purl.org/dc/dcmitype/StillImage" /></cc:Work></rdf:RDF></metadata><defs
     id="defs4947" /><sodipodi:namedview
     pagecolor="#ffffff"
     bordercolor="#666666"
     borderopacity="1"
     objecttolerance="10"
     gridtolerance="10"
     guidetolerance="10"
     inkscape:pageopacity="0"
     inkscape:pageshadow="2"
     inkscape:window-width="810"
     inkscape:window-height="480"
     id="namedview4945"
     showgrid="false"
     inkscape:zoom="0.53815792"
     inkscape:cx="219.26649"
     inkscape:cy="219.26649"
     inkscape:window-x="507"
     inkscape:window-y="193"
     inkscape:window-maximized="0"
     inkscape:current-layer="Capa_1" /><g
     id="g4912"
     style="fill:#0189c7;fill-opacity:1"><g
       id="g4910"
       style="fill:#0189c7;fill-opacity:1"><path
         d="M396.283,130.188c-3.806-9.135-8.371-16.365-13.703-21.695l-89.078-89.081c-5.332-5.325-12.56-9.895-21.697-13.704    C262.672,1.903,254.297,0,246.687,0H63.953C56.341,0,49.869,2.663,44.54,7.993c-5.33,5.327-7.994,11.799-7.994,19.414v383.719    c0,7.617,2.664,14.089,7.994,19.417c5.33,5.325,11.801,7.991,19.414,7.991h310.633c7.611,0,14.079-2.666,19.407-7.991    c5.328-5.332,7.994-11.8,7.994-19.417V155.313C401.991,147.699,400.088,139.323,396.283,130.188z M255.816,38.826    c5.517,1.903,9.418,3.999,11.704,6.28l89.366,89.366c2.279,2.286,4.374,6.186,6.276,11.706H255.816V38.826z M365.449,401.991    H73.089V36.545h146.178v118.771c0,7.614,2.662,14.084,7.992,19.414c5.332,5.327,11.8,7.994,19.417,7.994h118.773V401.991z"
         id="path4904"
         style="fill:#0189c7;fill-opacity:1" /><path
         d="M319.77,292.355h-201c-2.663,0-4.853,0.855-6.567,2.566c-1.709,1.711-2.568,3.901-2.568,6.563v18.274    c0,2.67,0.856,4.859,2.568,6.57c1.715,1.711,3.905,2.567,6.567,2.567h201c2.663,0,4.854-0.856,6.564-2.567s2.566-3.9,2.566-6.57    v-18.274c0-2.662-0.855-4.853-2.566-6.563C324.619,293.214,322.429,292.355,319.77,292.355z"
         id="path4906"
         style="fill:#0189c7;fill-opacity:1" /><path
         d="M112.202,221.831c-1.709,1.712-2.568,3.901-2.568,6.571v18.271c0,2.666,0.856,4.856,2.568,6.567    c1.715,1.711,3.905,2.566,6.567,2.566h201c2.663,0,4.854-0.855,6.564-2.566s2.566-3.901,2.566-6.567v-18.271    c0-2.663-0.855-4.854-2.566-6.571c-1.715-1.709-3.905-2.564-6.564-2.564h-201C116.107,219.267,113.917,220.122,112.202,221.831z"
         id="path4908"
         style="fill:#0189c7;fill-opacity:1" /></g></g><g
     id="g4914" /><g
     id="g4916" /><g
     id="g4918" /><g
     id="g4920" /><g
     id="g4922" /><g
     id="g4924" /><g
     id="g4926" /><g
     id="g4928" /><g
     id="g4930" /><g
     id="g4932" /><g
     id="g4934" /><g
     id="g4936" /><g
     id="g4938" /><g
     id="g4940" /><g
     id="g4942" /></svg>