<?xml version="1.0" encoding="UTF-8" standalone="no"?>
<!-- Generator: Adobe Illustrator 16.0.0, SVG Export Plug-In . SVG Version: 6.00 Build 0)  -->

<svg
   xmlns:dc="http://purl.org/dc/elements/1.1/"
   xmlns:cc="http://creativecommons.org/ns#"
   xmlns:rdf="http://www.w3.org/1999/02/22-rdf-syntax-ns#"
   xmlns:svg="http://www.w3.org/2000/svg"
   xmlns="http://www.w3.org/2000/svg"
   xmlns:sodipodi="http://sodipodi.sourceforge.net/DTD/sodipodi-0.dtd"
   xmlns:inkscape="http://www.inkscape.org/namespaces/inkscape"
   version="1.1"
   id="Capa_1"
   x="0px"
   y="0px"
   width="475.08099"
   height="401.991"
   viewBox="0 0 475.08099 401.991"
   xml:space="preserve"
   sodipodi:docname="005-left.svg"
   inkscape:version="0.92.2 5c3e80d, 2017-08-06"><metadata
     id="metadata3866"><rdf:RDF><cc:Work
         rdf:about=""><dc:format>image/svg+xml</dc:format><dc:type
           rdf:resource="http://purl.org/dc/dcmitype/StillImage" /><dc:title></dc:title></cc:Work></rdf:RDF></metadata><defs
     id="defs3864" /><sodipodi:namedview
     pagecolor="#ffffff"
     bordercolor="#666666"
     borderopacity="1"
     objecttolerance="10"
     gridtolerance="10"
     guidetolerance="10"
     inkscape:pageopacity="0"
     inkscape:pageshadow="2"
     inkscape:window-width="1920"
     inkscape:window-height="1016"
     id="namedview3862"
     showgrid="false"
     inkscape:zoom="1.7323362"
     inkscape:cx="123.24448"
     inkscape:cy="200.9955"
     inkscape:window-x="0"
     inkscape:window-y="27"
     inkscape:window-maximized="1"
     inkscape:current-layer="Capa_1"
     fit-margin-top="0"
     fit-margin-left="0"
     fit-margin-right="0"
     fit-margin-bottom="0" /><g
     id="g3829"
     style="fill:#0189c7;fill-opacity:1"
     transform="translate(0,-36.545)"><g
       id="g3827"
       style="fill:#0189c7;fill-opacity:1"><path
         d="m 164.45,219.27 h -63.954 c -7.614,0 -14.087,-2.664 -19.417,-7.994 -5.327,-5.33 -7.994,-11.801 -7.994,-19.417 v -9.132 c 0,-20.177 7.139,-37.401 21.416,-51.678 14.276,-14.272 31.503,-21.411 51.678,-21.411 h 18.271 c 4.948,0 9.229,-1.809 12.847,-5.424 3.616,-3.617 5.424,-7.898 5.424,-12.847 V 54.819 c 0,-4.948 -1.809,-9.233 -5.424,-12.85 -3.617,-3.612 -7.898,-5.424 -12.847,-5.424 h -18.271 c -19.797,0 -38.684,3.858 -56.673,11.563 C 71.519,55.818 55.961,66.24 42.826,79.375 29.692,92.504 19.273,108.063 11.564,126.052 3.855,144.039 0,162.931 0,182.726 v 200.991 c 0,15.235 5.327,28.171 15.986,38.834 10.66,10.657 23.606,15.985 38.832,15.985 h 109.639 c 15.225,0 28.167,-5.328 38.828,-15.985 10.657,-10.663 15.987,-23.599 15.987,-38.834 V 274.088 c 0,-15.232 -5.33,-28.168 -15.994,-38.832 C 192.622,224.6 179.675,219.27 164.45,219.27 Z"
         id="path3823"
         style="fill:#0189c7;fill-opacity:1"
         inkscape:connector-curvature="0" /><path
         d="M 459.103,235.256 C 448.447,224.6 435.504,219.27 420.275,219.27 h -63.953 c -7.61,0 -14.089,-2.664 -19.41,-7.994 -5.332,-5.33 -7.994,-11.801 -7.994,-19.417 v -9.132 c 0,-20.177 7.139,-37.401 21.409,-51.678 14.271,-14.272 31.497,-21.411 51.682,-21.411 h 18.267 c 4.949,0 9.233,-1.809 12.848,-5.424 3.613,-3.617 5.428,-7.898 5.428,-12.847 V 54.819 c 0,-4.948 -1.814,-9.233 -5.428,-12.85 -3.614,-3.612 -7.898,-5.424 -12.848,-5.424 h -18.267 c -19.808,0 -38.691,3.858 -56.685,11.563 -17.984,7.71 -33.537,18.132 -46.672,31.267 -13.135,13.129 -23.559,28.688 -31.265,46.677 -7.707,17.987 -11.567,36.879 -11.567,56.674 v 200.991 c 0,15.235 5.332,28.171 15.988,38.834 10.657,10.657 23.6,15.985 38.828,15.985 h 109.633 c 15.229,0 28.171,-5.328 38.827,-15.985 10.664,-10.663 15.985,-23.599 15.985,-38.834 V 274.088 c 10e-4,-15.233 -5.321,-28.168 -15.978,-38.832 z"
         id="path3825"
         style="fill:#0189c7;fill-opacity:1"
         inkscape:connector-curvature="0" /></g></g><g
     id="g3831"
     transform="translate(0,-36.545)" /><g
     id="g3833"
     transform="translate(0,-36.545)" /><g
     id="g3835"
     transform="translate(0,-36.545)" /><g
     id="g3837"
     transform="translate(0,-36.545)" /><g
     id="g3839"
     transform="translate(0,-36.545)" /><g
     id="g3841"
     transform="translate(0,-36.545)" /><g
     id="g3843"
     transform="translate(0,-36.545)" /><g
     id="g3845"
     transform="translate(0,-36.545)" /><g
     id="g3847"
     transform="translate(0,-36.545)" /><g
     id="g3849"
     transform="translate(0,-36.545)" /><g
     id="g3851"
     transform="translate(0,-36.545)" /><g
     id="g3853"
     transform="translate(0,-36.545)" /><g
     id="g3855"
     transform="translate(0,-36.545)" /><g
     id="g3857"
     transform="translate(0,-36.545)" /><g
     id="g3859"
     transform="translate(0,-36.545)" /></svg>