<?xml version="1.0" encoding="UTF-8" standalone="no"?>
<!-- Generator: Adobe Illustrator 16.0.0, SVG Export Plug-In . SVG Version: 6.00 Build 0)  -->

<svg
   xmlns:dc="http://purl.org/dc/elements/1.1/"
   xmlns:cc="http://creativecommons.org/ns#"
   xmlns:rdf="http://www.w3.org/1999/02/22-rdf-syntax-ns#"
   xmlns:svg="http://www.w3.org/2000/svg"
   xmlns="http://www.w3.org/2000/svg"
   xmlns:sodipodi="http://sodipodi.sourceforge.net/DTD/sodipodi-0.dtd"
   xmlns:inkscape="http://www.inkscape.org/namespaces/inkscape"
   version="1.1"
   id="Capa_1"
   x="0px"
   y="0px"
   width="468.51404"
   height="469.09"
   viewBox="0 0 468.51404 469.09001"
   xml:space="preserve"
   sodipodi:docname="007-tool.svg"
   inkscape:version="0.92.2 5c3e80d, 2017-08-06"><metadata
     id="metadata7062"><rdf:RDF><cc:Work
         rdf:about=""><dc:format>image/svg+xml</dc:format><dc:type
           rdf:resource="http://purl.org/dc/dcmitype/StillImage" /><dc:title></dc:title></cc:Work></rdf:RDF></metadata><defs
     id="defs7060" /><sodipodi:namedview
     pagecolor="#ffffff"
     bordercolor="#666666"
     borderopacity="1"
     objecttolerance="10"
     gridtolerance="10"
     guidetolerance="10"
     inkscape:pageopacity="0"
     inkscape:pageshadow="2"
     inkscape:window-width="820"
     inkscape:window-height="480"
     id="namedview7058"
     showgrid="false"
     fit-margin-top="0"
     fit-margin-left="0"
     fit-margin-right="0"
     fit-margin-bottom="0"
     inkscape:zoom="0.50310283"
     inkscape:cx="234.257"
     inkscape:cy="234.54551"
     inkscape:window-x="147"
     inkscape:window-y="131"
     inkscape:window-maximized="0"
     inkscape:current-layer="Capa_1" /><g
     id="g7025"
     style="fill:#0189c7;fill-opacity:1"
     transform="translate(-0.288)"><g
       id="g7023"
       style="fill:#0189c7;fill-opacity:1"><path
         d="M 205.566,181.586 11.138,376.013 c -7.232,7.231 -10.85,15.893 -10.85,25.981 0,10.28 3.617,18.842 10.85,25.7 L 41.4,458.529 c 7.426,7.043 16.086,10.561 25.981,10.561 10.089,0 18.654,-3.518 25.697,-10.561 L 287.787,263.814 C 269.14,256.388 252.631,245.492 238.255,231.123 223.887,216.751 212.992,200.239 205.566,181.586 Z M 98.504,396.57 c -3.621,3.614 -7.903,5.425 -12.85,5.425 -4.949,0 -9.231,-1.811 -12.847,-5.425 -3.617,-3.617 -5.426,-7.898 -5.426,-12.847 0,-4.944 1.809,-9.232 5.426,-12.854 3.616,-3.61 7.895,-5.421 12.847,-5.421 4.95,0 9.233,1.811 12.85,5.421 3.615,3.621 5.424,7.909 5.424,12.854 0,4.948 -1.809,9.23 -5.424,12.847 z"
         id="path7019"
         style="fill:#0189c7;fill-opacity:1"
         inkscape:connector-curvature="0" /><path
         d="m 466.379,132.477 c -1.618,-1.906 -3.856,-2.856 -6.707,-2.856 -1.711,0 -8.419,3.381 -20.129,10.138 -11.704,6.755 -24.603,14.462 -38.685,23.124 -14.089,8.663 -21.607,13.278 -22.556,13.85 l -55.106,-30.55 V 82.229 l 83.651,-48.254 c 3.045,-2.093 4.568,-4.758 4.568,-7.994 0,-3.234 -1.523,-5.898 -4.568,-7.992 C 398.469,12.277 388.237,7.851 376.157,4.711 364.07,1.571 352.504,0 341.467,0 c -35.211,0 -65.332,12.518 -90.358,37.546 -25.035,25.026 -37.544,55.149 -37.544,90.36 0,35.212 12.516,65.334 37.544,90.362 25.026,25.026 55.147,37.544 90.358,37.544 26.84,0 51.442,-7.953 73.806,-23.842 22.36,-15.893 38.021,-36.592 46.966,-62.097 4.374,-12.751 6.563,-22.841 6.563,-30.262 0.007,-2.848 -0.808,-5.228 -2.423,-7.134 z"
         id="path7021"
         style="fill:#0189c7;fill-opacity:1"
         inkscape:connector-curvature="0" /></g></g><g
     id="g7027"
     transform="translate(-0.288)" /><g
     id="g7029"
     transform="translate(-0.288)" /><g
     id="g7031"
     transform="translate(-0.288)" /><g
     id="g7033"
     transform="translate(-0.288)" /><g
     id="g7035"
     transform="translate(-0.288)" /><g
     id="g7037"
     transform="translate(-0.288)" /><g
     id="g7039"
     transform="translate(-0.288)" /><g
     id="g7041"
     transform="translate(-0.288)" /><g
     id="g7043"
     transform="translate(-0.288)" /><g
     id="g7045"
     transform="translate(-0.288)" /><g
     id="g7047"
     transform="translate(-0.288)" /><g
     id="g7049"
     transform="translate(-0.288)" /><g
     id="g7051"
     transform="translate(-0.288)" /><g
     id="g7053"
     transform="translate(-0.288)" /><g
     id="g7055"
     transform="translate(-0.288)" /></svg>