<?xml version="1.0" encoding="UTF-8" standalone="no"?>
<!-- Created with Inkscape (http://www.inkscape.org/) -->

<svg
   xmlns:dc="http://purl.org/dc/elements/1.1/"
   xmlns:cc="http://creativecommons.org/ns#"
   xmlns:rdf="http://www.w3.org/1999/02/22-rdf-syntax-ns#"
   xmlns:svg="http://www.w3.org/2000/svg"
   xmlns="http://www.w3.org/2000/svg"
   xmlns:sodipodi="http://sodipodi.sourceforge.net/DTD/sodipodi-0.dtd"
   xmlns:inkscape="http://www.inkscape.org/namespaces/inkscape"
   width="52.872742mm"
   height="52.859303mm"
   viewBox="0 0 52.872742 52.859303"
   version="1.1"
   id="svg7182"
   inkscape:version="0.92.2 5c3e80d, 2017-08-06"
   sodipodi:docname="anglais.svg">
  <defs
     id="defs7176" />
  <sodipodi:namedview
     id="base"
     pagecolor="#ffffff"
     bordercolor="#666666"
     borderopacity="1.0"
     inkscape:pageopacity="0.0"
     inkscape:pageshadow="2"
     inkscape:zoom="2.8"
     inkscape:cx="87.757687"
     inkscape:cy="87.878875"
     inkscape:document-units="mm"
     inkscape:current-layer="layer1"
     showgrid="false"
     fit-margin-top="0"
     fit-margin-left="0"
     fit-margin-right="0"
     fit-margin-bottom="0"
     inkscape:window-width="1920"
     inkscape:window-height="1016"
     inkscape:window-x="0"
     inkscape:window-y="27"
     inkscape:window-maximized="1" />
  <metadata
     id="metadata7179">
    <rdf:RDF>
      <cc:Work
         rdf:about="">
        <dc:format>image/svg+xml</dc:format>
        <dc:type
           rdf:resource="http://purl.org/dc/dcmitype/StillImage" />
        <dc:title></dc:title>
      </cc:Work>
    </rdf:RDF>
  </metadata>
  <g
     inkscape:label="Calque 1"
     inkscape:groupmode="layer"
     id="layer1"
     transform="translate(-26.480298,-28.66559)">
    <g
       id="g7241"
       inkscape:export-xdpi="96"
       inkscape:export-ydpi="96">
      <path
         inkscape:connector-curvature="0"
         id="path7147"
         d="m 53.759768,28.66559 v 5.653918 a 20.817992,20.817992 0 0 1 13.253456,5.486487 l 3.985802,-3.985286 A 26.459725,26.459725 0 0 0 53.759768,28.66559 Z"
         style="fill:#028bc6;fill-opacity:1;stroke:none;stroke-width:0.26179236;stroke-opacity:1" />
      <path
         inkscape:connector-curvature="0"
         id="path7145"
         d="m 52.074084,28.679544 a 26.459725,26.459725 0 0 0 -17.238223,7.142199 l 3.982702,3.982702 A 20.817992,20.817992 0 0 1 52.074084,34.29677 Z"
         style="fill:#b7b7b9;fill-opacity:1;stroke:none;stroke-width:0.26179236;stroke-opacity:1" />
      <path
         inkscape:connector-curvature="0"
         id="path7143"
         d="m 33.633867,37.0041 a 26.459725,26.459725 0 0 0 -7.153569,17.247007 h 5.662187 a 20.817992,20.817992 0 0 1 5.488038,-13.250354 z"
         style="fill:#b7b7b9;fill-opacity:1;stroke:none;stroke-width:0.26179236;stroke-opacity:1" />
      <path
         inkscape:connector-curvature="0"
         id="path7141"
         d="m 72.181901,37.022184 -3.982188,3.982189 a 20.817992,20.817992 0 0 1 5.514909,13.246734 H 79.33185 A 26.459725,26.459725 0 0 0 72.181901,37.022184 Z"
         style="fill:#028bc6;fill-opacity:1;stroke:none;stroke-width:0.26179236;stroke-opacity:1" />
      <path
         inkscape:connector-curvature="0"
         id="path7139"
         d="m 26.501486,55.938861 a 26.459725,26.459725 0 0 0 7.150468,17.229954 L 37.634139,69.18663 A 20.817992,20.817992 0 0 1 32.118712,55.938861 Z"
         style="fill:#b7b7b9;fill-opacity:1;stroke:none;stroke-width:0.26179236;stroke-opacity:1" />
      <path
         inkscape:connector-curvature="0"
         id="path7137"
         d="m 73.690852,55.938861 a 20.817992,20.817992 0 0 1 -5.488038,13.25087 l 3.99614,3.996655 a 26.459725,26.459725 0 0 0 7.154084,-17.247525 z"
         style="fill:#028bc6;fill-opacity:1;stroke:none;stroke-width:0.26179236;stroke-opacity:1" />
      <path
         inkscape:connector-curvature="0"
         id="path7135"
         d="m 38.820113,70.383973 -3.985802,3.985805 a 26.459725,26.459725 0 0 0 17.239773,7.155116 V 75.870976 A 20.817992,20.817992 0 0 1 38.820113,70.383973 Z"
         style="fill:#b7b7b9;fill-opacity:1;stroke:none;stroke-width:0.26179236;stroke-opacity:1" />
      <path
         inkscape:connector-curvature="0"
         id="path6265"
         d="m 67.014774,70.385523 a 20.817992,20.817992 0 0 1 -13.255006,5.508191 v 5.617229 a 26.459725,26.459725 0 0 0 17.237708,-7.142716 z"
         style="fill:#028bc6;fill-opacity:1;stroke:none;stroke-width:0.26179236;stroke-opacity:1" />
    </g>
  </g>
</svg>
