<?xml version="1.0" encoding="UTF-8" standalone="no"?>
<svg
   xmlns:dc="http://purl.org/dc/elements/1.1/"
   xmlns:cc="http://creativecommons.org/ns#"
   xmlns:rdf="http://www.w3.org/1999/02/22-rdf-syntax-ns#"
   xmlns:svg="http://www.w3.org/2000/svg"
   xmlns="http://www.w3.org/2000/svg"
   xmlns:sodipodi="http://sodipodi.sourceforge.net/DTD/sodipodi-0.dtd"
   xmlns:inkscape="http://www.inkscape.org/namespaces/inkscape"
   aria-hidden="true"
   data-prefix="fas"
   data-icon="award"
   class="svg-inline--fa fa-award fa-w-12"
   role="img"
   viewBox="0 0 384.00394 512.00879"
   version="1.1"
   id="svg5318"
   sodipodi:docname="award-solid.svg"
   width="384.00394"
   height="512.00879"
   inkscape:version="0.92.2 5c3e80d, 2017-08-06">
  <metadata
     id="metadata5324">
    <rdf:RDF>
      <cc:Work
         rdf:about="">
        <dc:format>image/svg+xml</dc:format>
        <dc:type
           rdf:resource="http://purl.org/dc/dcmitype/StillImage" />
        <dc:title></dc:title>
      </cc:Work>
    </rdf:RDF>
  </metadata>
  <defs
     id="defs5322" />
  <sodipodi:namedview
     pagecolor="#ffffff"
     bordercolor="#666666"
     borderopacity="1"
     objecttolerance="10"
     gridtolerance="10"
     guidetolerance="10"
     inkscape:pageopacity="0"
     inkscape:pageshadow="2"
     inkscape:window-width="820"
     inkscape:window-height="480"
     id="namedview5320"
     showgrid="false"
     fit-margin-top="0"
     fit-margin-left="0"
     fit-margin-right="0"
     fit-margin-bottom="0"
     inkscape:zoom="0.4609375"
     inkscape:cx="192.00198"
     inkscape:cy="256.00213"
     inkscape:window-x="0"
     inkscape:window-y="27"
     inkscape:window-maximized="0"
     inkscape:current-layer="svg5318" />
  <path
     d="m 97.121976,362.63668 -5.3,-5.3 a 9.004,9.004 0 0 0 -4.02,-2.32 l -15.8,-4.24 c -9.51,-2.55 -17.87,-7.45 -25.43,-13.32 l -45.3700004,111.25 c -4.39,10.77 3.81,22.47 15.4300004,22.03 l 52.69,-2.01 36.240004,38.28 c 8,8.44 22.04,5.81 26.43,-4.96 l 52.05,-127.62 c -10.84,6.04 -22.87,9.58 -35.31,9.58 -19.5,0 -37.82,-7.59 -51.610004,-21.37 z m 285.680004,86.07 -45.37,-111.24 c -7.56,5.88 -15.92,10.77 -25.43,13.32 l -15.8,4.23 a 9.004,9.004 0 0 0 -4.02,2.32 l -5.3,5.3 c -13.79,13.78 -32.12,21.37 -51.62,21.37 -12.44,0 -24.47,-3.55 -35.31,-9.58 l 52.05,127.62 c 4.39,10.77 18.44,13.4 26.43,4.96 l 36.25,-38.28 52.69,2.01 c 11.62,0.44 19.82,-11.27 15.43,-22.03 z m -119.8,-108.7 5.21,-5.3 c 5,-5.09 11.22,-8.75 18.05,-10.61 l 15.53,-4.23 c 13.89,-3.79 24.75,-14.84 28.47,-28.98 l 4.16,-15.81 a 41.145,41.145 0 0 1 10.42,-18.37 l 11.37,-11.57 c 10.17,-10.35 14.14,-25.44 10.42,-39.58 l -4.16,-15.81 a 41.657,41.657 0 0 1 0,-21.21 l 4.16,-15.81 c 3.72,-14.14 -0.25,-29.23 -10.42,-39.58 l -11.37,-11.57 c -5,-5.090003 -8.59,-11.420003 -10.42,-18.370003 l -4.16,-15.8 c -3.72,-14.14 -14.58,-25.19 -28.47,-28.98 l -15.53,-4.24 c -6.83,-1.86 -13.05,-5.52 -18.05,-10.61 l -11.37,-11.57 c -10.17,-10.3499999 -25,-14.3999999 -38.89,-10.6099999 l -15.53,4.24 a 39.614,39.614 0 0 1 -20.84,0 l -15.53,-4.23 c -13.89,-3.79 -28.72,0.25 -38.89,10.6099999 l -11.37,11.57 c -5,5.09 -11.22,8.74 -18.050004,10.61 l -15.53,4.24 c -13.89,3.79 -24.75,14.84 -28.47,28.98 l -4.16,15.8 a 41.145,41.145 0 0 1 -10.42,18.370003 l -11.37,11.57 c -10.17,10.35 -14.15,25.44 -10.42,39.58 l 4.16,15.8 a 41.657,41.657 0 0 1 0,21.21 l -4.16,15.8 c -3.72,14.14 0.25,29.23 10.42,39.59 l 11.37,11.57 c 5,5.09 8.59,11.42 10.42,18.37 l 4.16,15.8 c 3.72,14.14 14.58,25.19 28.47,28.98 l 15.53,4.23 c 6.830004,1.86 13.050004,5.52 18.050004,10.61 l 5.21,5.31 c 13.23,13.47 33.84,15.88 49.74,5.82 a 39.676,39.676 0 0 1 42.53,0 c 15.89,10.06 36.5,7.65 49.73,-5.82 z m -165.340004,-164.04 c 0,-53.03 42.240004,-96.020003 94.340004,-96.020003 52.1,0 94.34,42.990003 94.34,96.020003 0,53.03 -42.24,96.02 -94.34,96.02 -52.1,0 -94.340004,-42.99 -94.340004,-96.02 z"
     id="path5316"
     style="fill:#0189c7;fill-opacity:1"
     inkscape:connector-curvature="0" />
</svg>
