<?xml version="1.0" encoding="UTF-8" standalone="no"?>
<svg
   xmlns:dc="http://purl.org/dc/elements/1.1/"
   xmlns:cc="http://creativecommons.org/ns#"
   xmlns:rdf="http://www.w3.org/1999/02/22-rdf-syntax-ns#"
   xmlns:svg="http://www.w3.org/2000/svg"
   xmlns="http://www.w3.org/2000/svg"
   xmlns:sodipodi="http://sodipodi.sourceforge.net/DTD/sodipodi-0.dtd"
   xmlns:inkscape="http://www.inkscape.org/namespaces/inkscape"
   aria-hidden="true"
   data-prefix="fas"
   data-icon="atlas"
   class="svg-inline--fa fa-atlas fa-w-14"
   role="img"
   viewBox="0 0 448 512"
   version="1.1"
   id="svg6147"
   sodipodi:docname="book-solid.svg"
   width="448"
   height="512"
   inkscape:version="0.92.2 5c3e80d, 2017-08-06">
  <metadata
     id="metadata6153">
    <rdf:RDF>
      <cc:Work
         rdf:about="">
        <dc:format>image/svg+xml</dc:format>
        <dc:type
           rdf:resource="http://purl.org/dc/dcmitype/StillImage" />
        <dc:title></dc:title>
      </cc:Work>
    </rdf:RDF>
  </metadata>
  <defs
     id="defs6151" />
  <sodipodi:namedview
     pagecolor="#ffffff"
     bordercolor="#666666"
     borderopacity="1"
     objecttolerance="10"
     gridtolerance="10"
     guidetolerance="10"
     inkscape:pageopacity="0"
     inkscape:pageshadow="2"
     inkscape:window-width="820"
     inkscape:window-height="480"
     id="namedview6149"
     showgrid="false"
     fit-margin-top="0"
     fit-margin-left="0"
     fit-margin-right="0"
     fit-margin-bottom="0"
     inkscape:zoom="0.4609375"
     inkscape:cx="224"
     inkscape:cy="256"
     inkscape:window-x="401"
     inkscape:window-y="184"
     inkscape:window-maximized="0"
     inkscape:current-layer="svg6147" />
  <path
     d="m 318.38,208 h -39.09 c -1.49,27.03 -6.54,51.35 -14.21,70.41 27.71,-13.24 48.02,-39.19 53.3,-70.41 z m 0,-32 c -5.29,-31.22 -25.59,-57.17 -53.3,-70.41 7.68,19.06 12.72,43.38 14.21,70.41 z M 224,97.31 c -7.69,7.45 -20.77,34.42 -23.43,78.69 h 46.87 C 244.77,131.74 231.69,104.76 224,97.31 Z m -41.08,8.28 c -27.71,13.24 -48.02,39.19 -53.3,70.41 h 39.09 c 1.49,-27.03 6.53,-51.35 14.21,-70.41 z m 0,172.82 C 175.24,259.35 170.2,235.03 168.71,208 h -39.09 c 5.28,31.22 25.59,57.17 53.3,70.41 z M 247.43,208 h -46.87 c 2.66,44.26 15.74,71.24 23.43,78.69 7.7,-7.45 20.78,-34.43 23.44,-78.69 z M 448,358.4 V 25.6 C 448,9.6 438.4,0 422.4,0 H 96 C 41.6,0 0,41.6 0,96 v 320 c 0,54.4 41.6,96 96,96 h 326.4 c 12.8,0 25.6,-9.6 25.6,-25.6 v -16 c 0,-6.4 -3.2,-12.8 -9.6,-19.2 -3.2,-16 -3.2,-60.8 0,-73.6 6.4,-3.2 9.6,-9.6 9.6,-19.2 z M 224,64 c 70.69,0 128,57.31 128,128 0,70.69 -57.31,128 -128,128 C 153.31,320 96,262.69 96,192 96,121.31 153.31,64 224,64 Z M 384,448 H 96 c -19.2,0 -32,-12.8 -32,-32 0,-19.2 16,-32 32,-32 h 288 z"
     id="path6145"
     style="fill:#0189c7;fill-opacity:1"
     inkscape:connector-curvature="0" />
</svg>
