<?xml version="1.0" encoding="UTF-8" standalone="no"?>
<svg
   xmlns:dc="http://purl.org/dc/elements/1.1/"
   xmlns:cc="http://creativecommons.org/ns#"
   xmlns:rdf="http://www.w3.org/1999/02/22-rdf-syntax-ns#"
   xmlns:svg="http://www.w3.org/2000/svg"
   xmlns="http://www.w3.org/2000/svg"
   xmlns:sodipodi="http://sodipodi.sourceforge.net/DTD/sodipodi-0.dtd"
   xmlns:inkscape="http://www.inkscape.org/namespaces/inkscape"
   aria-hidden="true"
   data-prefix="fas"
   data-icon="code"
   class="svg-inline--fa fa-code fa-w-20"
   role="img"
   viewBox="0 0 640.04999 511.96149"
   version="1.1"
   id="svg865"
   sodipodi:docname="code-solid.svg"
   width="640.04999"
   height="511.96149"
   inkscape:version="0.92.2 5c3e80d, 2017-08-06">
  <metadata
     id="metadata871">
    <rdf:RDF>
      <cc:Work
         rdf:about="">
        <dc:format>image/svg+xml</dc:format>
        <dc:type
           rdf:resource="http://purl.org/dc/dcmitype/StillImage" />
        <dc:title></dc:title>
      </cc:Work>
    </rdf:RDF>
  </metadata>
  <defs
     id="defs869" />
  <sodipodi:namedview
     pagecolor="#ffffff"
     bordercolor="#666666"
     borderopacity="1"
     objecttolerance="10"
     gridtolerance="10"
     guidetolerance="10"
     inkscape:pageopacity="0"
     inkscape:pageshadow="2"
     inkscape:window-width="1920"
     inkscape:window-height="1016"
     id="namedview867"
     showgrid="false"
     fit-margin-top="0"
     fit-margin-left="0"
     fit-margin-right="0"
     fit-margin-bottom="0"
     inkscape:zoom="0.80371094"
     inkscape:cx="350.6707"
     inkscape:cy="200.41437"
     inkscape:window-x="0"
     inkscape:window-y="27"
     inkscape:window-maximized="1"
     inkscape:current-layer="svg865" />
  <path
     d="m 278.925,511.46283 -61,-17.7 c -6.4,-1.8 -10,-8.5 -8.2,-14.9 L 346.225,8.6628257 c 1.8,-6.4 8.5,-10 14.9,-8.2 l 61,17.7000003 c 6.4,1.8 10,8.5 8.2,14.9 l -136.5,470.200004 c -1.9,6.4 -8.5,10.1 -14.9,8.2 z m -114,-112.2 43.5,-46.4 c 4.6,-4.9 4.3,-12.7 -0.8,-17.2 l -90.6,-79.7 90.6,-79.7 c 5.1,-4.5 5.5,-12.3 0.8,-17.2 l -43.5,-46.4 c -4.5,-4.8 -12.1,-5.1 -17,-0.5 l -144.1,135 c -5.1,4.7 -5.1,12.8 0,17.5 l 144.1,135.1 c 4.9,4.6 12.5,4.4 17,-0.5 z m 327.2,0.6 144.1,-135.1 c 5.1,-4.7 5.1,-12.8 0,-17.5 l -144.1,-135.2 c -4.8,-4.5 -12.4,-4.3 -17,0.5 l -43.5,46.4 c -4.6,4.9 -4.3,12.7 0.8,17.2 l 90.6,79.8 -90.6,79.7 c -5.1,4.5 -5.5,12.3 -0.8,17.2 l 43.5,46.4 c 4.5,4.9 12.1,5.1 17,0.6 z"
     id="path863"
     style="fill:#0189c7;fill-opacity:1"
     inkscape:connector-curvature="0" />
</svg>
