<?xml version="1.0" encoding="UTF-8" standalone="no"?>
<svg
   xmlns:dc="http://purl.org/dc/elements/1.1/"
   xmlns:cc="http://creativecommons.org/ns#"
   xmlns:rdf="http://www.w3.org/1999/02/22-rdf-syntax-ns#"
   xmlns:svg="http://www.w3.org/2000/svg"
   xmlns="http://www.w3.org/2000/svg"
   xmlns:sodipodi="http://sodipodi.sourceforge.net/DTD/sodipodi-0.dtd"
   xmlns:inkscape="http://www.inkscape.org/namespaces/inkscape"
   aria-hidden="true"
   data-prefix="fas"
   data-icon="desktop"
   class="svg-inline--fa fa-desktop fa-w-18"
   role="img"
   viewBox="0 0 576 512"
   version="1.1"
   id="svg7423"
   sodipodi:docname="computer-icon.svg"
   inkscape:version="0.92.2 5c3e80d, 2017-08-06"
   width="576"
   height="512">
  <metadata
     id="metadata7429">
    <rdf:RDF>
      <cc:Work
         rdf:about="">
        <dc:format>image/svg+xml</dc:format>
        <dc:type
           rdf:resource="http://purl.org/dc/dcmitype/StillImage" />
        <dc:title></dc:title>
      </cc:Work>
    </rdf:RDF>
  </metadata>
  <defs
     id="defs7427" />
  <sodipodi:namedview
     pagecolor="#ffffff"
     bordercolor="#666666"
     borderopacity="1"
     objecttolerance="10"
     gridtolerance="10"
     guidetolerance="10"
     inkscape:pageopacity="0"
     inkscape:pageshadow="2"
     inkscape:window-width="1920"
     inkscape:window-height="1016"
     id="namedview7425"
     showgrid="false"
     inkscape:zoom="0.4609375"
     inkscape:cx="288"
     inkscape:cy="256"
     inkscape:window-x="0"
     inkscape:window-y="27"
     inkscape:window-maximized="1"
     inkscape:current-layer="svg7423"
     fit-margin-top="0"
     fit-margin-left="0"
     fit-margin-right="0"
     fit-margin-bottom="0" />
  <path
     d="M 528,0 H 48 C 21.5,0 0,21.5 0,48 v 320 c 0,26.5 21.5,48 48,48 h 192 l -16,48 h -72 c -13.3,0 -24,10.7 -24,24 0,13.3 10.7,24 24,24 h 272 c 13.3,0 24,-10.7 24,-24 0,-13.3 -10.7,-24 -24,-24 h -72 l -16,-48 h 192 c 26.5,0 48,-21.5 48,-48 V 48 C 576,21.5 554.5,0 528,0 Z M 512,352 H 64 V 64 h 448 z"
     id="path7421"
     style="fill:#0188c7;fill-opacity:1"
     inkscape:connector-curvature="0" />
</svg>
