<?xml version="1.0" encoding="UTF-8" standalone="no"?>
<svg
   xmlns:dc="http://purl.org/dc/elements/1.1/"
   xmlns:cc="http://creativecommons.org/ns#"
   xmlns:rdf="http://www.w3.org/1999/02/22-rdf-syntax-ns#"
   xmlns:svg="http://www.w3.org/2000/svg"
   xmlns="http://www.w3.org/2000/svg"
   xmlns:sodipodi="http://sodipodi.sourceforge.net/DTD/sodipodi-0.dtd"
   xmlns:inkscape="http://www.inkscape.org/namespaces/inkscape"
   aria-hidden="true"
   data-prefix="fas"
   data-icon="clipboard-list"
   class="svg-inline--fa fa-clipboard-list fa-w-12"
   role="img"
   viewBox="0 0 384 512"
   version="1.1"
   id="svg8399"
   sodipodi:docname="competences-fonctionnelles.svg"
   inkscape:version="0.92.2 5c3e80d, 2017-08-06"
   width="384"
   height="512">
  <metadata
     id="metadata8405">
    <rdf:RDF>
      <cc:Work
         rdf:about="">
        <dc:format>image/svg+xml</dc:format>
        <dc:type
           rdf:resource="http://purl.org/dc/dcmitype/StillImage" />
        <dc:title></dc:title>
      </cc:Work>
    </rdf:RDF>
  </metadata>
  <defs
     id="defs8403" />
  <sodipodi:namedview
     pagecolor="#ffffff"
     bordercolor="#666666"
     borderopacity="1"
     objecttolerance="10"
     gridtolerance="10"
     guidetolerance="10"
     inkscape:pageopacity="0"
     inkscape:pageshadow="2"
     inkscape:window-width="810"
     inkscape:window-height="480"
     id="namedview8401"
     showgrid="false"
     inkscape:zoom="0.4609375"
     inkscape:cx="192"
     inkscape:cy="256"
     inkscape:window-x="484"
     inkscape:window-y="227"
     inkscape:window-maximized="0"
     inkscape:current-layer="svg8399"
     fit-margin-top="0"
     fit-margin-left="0"
     fit-margin-right="0"
     fit-margin-bottom="0" />
  <path
     d="M 336,64 H 256 C 256,28.7 227.3,0 192,0 156.7,0 128,28.7 128,64 H 48 C 21.5,64 0,85.5 0,112 v 352 c 0,26.5 21.5,48 48,48 h 288 c 26.5,0 48,-21.5 48,-48 V 112 C 384,85.5 362.5,64 336,64 Z M 96,424 c -13.3,0 -24,-10.7 -24,-24 0,-13.3 10.7,-24 24,-24 13.3,0 24,10.7 24,24 0,13.3 -10.7,24 -24,24 z m 0,-96 c -13.3,0 -24,-10.7 -24,-24 0,-13.3 10.7,-24 24,-24 13.3,0 24,10.7 24,24 0,13.3 -10.7,24 -24,24 z m 0,-96 c -13.3,0 -24,-10.7 -24,-24 0,-13.3 10.7,-24 24,-24 13.3,0 24,10.7 24,24 0,13.3 -10.7,24 -24,24 z M 192,40 c 13.3,0 24,10.7 24,24 0,13.3 -10.7,24 -24,24 -13.3,0 -24,-10.7 -24,-24 0,-13.3 10.7,-24 24,-24 z m 128,368 c 0,4.4 -3.6,8 -8,8 H 168 c -4.4,0 -8,-3.6 -8,-8 v -16 c 0,-4.4 3.6,-8 8,-8 h 144 c 4.4,0 8,3.6 8,8 z m 0,-96 c 0,4.4 -3.6,8 -8,8 H 168 c -4.4,0 -8,-3.6 -8,-8 v -16 c 0,-4.4 3.6,-8 8,-8 h 144 c 4.4,0 8,3.6 8,8 z m 0,-96 c 0,4.4 -3.6,8 -8,8 H 168 c -4.4,0 -8,-3.6 -8,-8 v -16 c 0,-4.4 3.6,-8 8,-8 h 144 c 4.4,0 8,3.6 8,8 z"
     id="path8397"
     style="fill:#0189c7;fill-opacity:1"
     inkscape:connector-curvature="0" />
</svg>
