<?xml version="1.0" encoding="UTF-8" standalone="no"?>
<!-- Created with Inkscape (http://www.inkscape.org/) -->

<svg
   xmlns:dc="http://purl.org/dc/elements/1.1/"
   xmlns:cc="http://creativecommons.org/ns#"
   xmlns:rdf="http://www.w3.org/1999/02/22-rdf-syntax-ns#"
   xmlns:svg="http://www.w3.org/2000/svg"
   xmlns="http://www.w3.org/2000/svg"
   xmlns:sodipodi="http://sodipodi.sourceforge.net/DTD/sodipodi-0.dtd"
   xmlns:inkscape="http://www.inkscape.org/namespaces/inkscape"
   width="100mm"
   height="99.974586mm"
   viewBox="0 0 100 99.974587"
   version="1.1"
   id="svg7182"
   inkscape:version="0.92.2 5c3e80d, 2017-08-06"
   sodipodi:docname="francais.svg"
   inkscape:export-filename="/home/renaud/Documents/save-cv/cv-2.0-class/images/anglais.png"
   inkscape:export-xdpi="96"
   inkscape:export-ydpi="96">
  <defs
     id="defs7176" />
  <sodipodi:namedview
     id="base"
     pagecolor="#ffffff"
     bordercolor="#666666"
     borderopacity="1.0"
     inkscape:pageopacity="0.0"
     inkscape:pageshadow="2"
     inkscape:zoom="1.4"
     inkscape:cx="29.068765"
     inkscape:cy="190.69767"
     inkscape:document-units="mm"
     inkscape:current-layer="layer1"
     showgrid="false"
     fit-margin-top="0"
     fit-margin-left="0"
     fit-margin-right="0"
     fit-margin-bottom="0"
     inkscape:window-width="1920"
     inkscape:window-height="1016"
     inkscape:window-x="0"
     inkscape:window-y="27"
     inkscape:window-maximized="1" />
  <metadata
     id="metadata7179">
    <rdf:RDF>
      <cc:Work
         rdf:about="">
        <dc:format>image/svg+xml</dc:format>
        <dc:type
           rdf:resource="http://purl.org/dc/dcmitype/StillImage" />
        <dc:title></dc:title>
      </cc:Work>
    </rdf:RDF>
  </metadata>
  <g
     inkscape:label="Calque 1"
     inkscape:groupmode="layer"
     id="layer1"
     transform="translate(-26.480298,18.449694)">
    <g
       id="g7297"
       inkscape:export-xdpi="96"
       inkscape:export-ydpi="96">
      <path
         inkscape:connector-curvature="0"
         id="path7147"
         d="M 78.074881,-18.449694 V -7.7562475 A 39.373772,39.373772 0 0 1 103.14159,2.6205308 l 7.53848,-7.5375061 A 50.044172,50.044172 0 0 0 78.074881,-18.449694 Z"
         style="fill:#028bc6;fill-opacity:1;stroke:none;stroke-width:0.49513674;stroke-opacity:1" />
      <path
         inkscape:connector-curvature="0"
         id="path7145"
         d="M 74.88669,-18.423302 A 50.044172,50.044172 0 0 0 42.283456,-4.9150197 l 7.532619,7.5326189 A 39.373772,39.373772 0 0 1 74.88669,-7.7992527 Z"
         style="fill:#b7b7b9;fill-opacity:1;stroke:none;stroke-width:0.49513674;stroke-opacity:1" />
      <path
         inkscape:connector-curvature="0"
         id="path7143"
         d="M 40.010084,-2.6787879 A 50.044172,50.044172 0 0 0 26.480298,29.941059 H 37.189383 A 39.373772,39.373772 0 0 1 47.569095,4.880217 Z"
         style="fill:#028bc6;fill-opacity:1;stroke:none;stroke-width:0.49513674;stroke-opacity:1" />
      <path
         inkscape:connector-curvature="0"
         id="path7141"
         d="m 112.91728,-2.6445851 -7.53164,7.5316487 a 39.373772,39.373772 0 0 1 10.43053,25.0539954 h 10.62405 A 50.044172,50.044172 0 0 0 112.91728,-2.6445851 Z"
         style="fill:#028bc6;fill-opacity:1;stroke:none;stroke-width:0.49513674;stroke-opacity:1" />
      <path
         inkscape:connector-curvature="0"
         id="path7139"
         d="M 26.520371,33.133166 A 50.044172,50.044172 0 0 0 40.044293,65.72076 l 7.531641,-7.531641 A 39.373772,39.373772 0 0 1 37.144421,33.133166 Z"
         style="fill:#028bc6;fill-opacity:1;stroke:none;stroke-width:0.49513674;stroke-opacity:1" />
      <path
         inkscape:connector-curvature="0"
         id="path7137"
         d="M 115.77121,33.133166 A 39.373772,39.373772 0 0 1 105.3915,58.194984 l 7.55804,7.559009 A 50.044172,50.044172 0 0 0 126.4803,33.133166 Z"
         style="fill:#028bc6;fill-opacity:1;stroke:none;stroke-width:0.49513674;stroke-opacity:1" />
      <path
         inkscape:connector-curvature="0"
         id="path7135"
         d="m 49.819007,60.453694 -7.538482,7.538488 A 50.044172,50.044172 0 0 0 74.88669,81.524895 V 70.831448 A 39.373772,39.373772 0 0 1 49.819007,60.453694 Z"
         style="fill:#028bc6;fill-opacity:1;stroke:none;stroke-width:0.49513674;stroke-opacity:1" />
      <path
         inkscape:connector-curvature="0"
         id="path6265"
         d="M 103.14452,60.456626 A 39.373772,39.373772 0 0 1 78.074881,70.874453 V 81.498509 A 50.044172,50.044172 0 0 0 110.67714,67.989248 Z"
         style="fill:#028bc6;fill-opacity:1;stroke:none;stroke-width:0.49513674;stroke-opacity:1" />
    </g>
  </g>
</svg>
