<?xml version="1.0" encoding="UTF-8" standalone="no"?>
<svg
   xmlns:dc="http://purl.org/dc/elements/1.1/"
   xmlns:cc="http://creativecommons.org/ns#"
   xmlns:rdf="http://www.w3.org/1999/02/22-rdf-syntax-ns#"
   xmlns:svg="http://www.w3.org/2000/svg"
   xmlns="http://www.w3.org/2000/svg"
   xmlns:sodipodi="http://sodipodi.sourceforge.net/DTD/sodipodi-0.dtd"
   xmlns:inkscape="http://www.inkscape.org/namespaces/inkscape"
   aria-hidden="true"
   data-prefix="fab"
   data-icon="git"
   class="svg-inline--fa fa-git fa-w-14"
   role="img"
   viewBox="0 0 416 448"
   version="1.1"
   id="svg10932"
   sodipodi:docname="git-brands.svg"
   inkscape:version="0.92.2 5c3e80d, 2017-08-06"
   width="416"
   height="448">
  <metadata
     id="metadata10938">
    <rdf:RDF>
      <cc:Work
         rdf:about="">
        <dc:format>image/svg+xml</dc:format>
        <dc:type
           rdf:resource="http://purl.org/dc/dcmitype/StillImage" />
        <dc:title></dc:title>
      </cc:Work>
    </rdf:RDF>
  </metadata>
  <defs
     id="defs10936" />
  <sodipodi:namedview
     pagecolor="#ffffff"
     bordercolor="#666666"
     borderopacity="1"
     objecttolerance="10"
     gridtolerance="10"
     guidetolerance="10"
     inkscape:pageopacity="0"
     inkscape:pageshadow="2"
     inkscape:window-width="820"
     inkscape:window-height="480"
     id="namedview10934"
     showgrid="false"
     inkscape:zoom="0.4609375"
     inkscape:cx="208"
     inkscape:cy="224"
     inkscape:window-x="0"
     inkscape:window-y="27"
     inkscape:window-maximized="0"
     inkscape:current-layer="svg10932"
     fit-margin-top="0"
     fit-margin-left="0"
     fit-margin-right="0"
     fit-margin-bottom="0" />
  <path
     d="m 2.8,189.7 c 0,25.3 16.2,60 41.5,68.5 v 1 c -18.8,8.3 -24,50.6 1,65.8 v 1 C 18,335 0,352.3 0,382.2 0,433.7 48.8,448 91.5,448 c 52,0 90.7,-18.7 90.7,-76 0,-70.5 -101,-44.5 -101,-82.8 0,-13.5 7.2,-18.7 19.7,-21.3 41.5,-7.7 67.5,-40 67.5,-82.2 0,-7.3 -1.5,-14.2 -4,-21 6.7,-1.5 13.2,-3.3 19.7,-5.5 v -50.5 c -17.2,6.8 -35.7,11.8 -54.5,11.8 C 75.8,89.5 2.8,121.8 2.8,189.7 Z m 87.7,163.8 c 17,0 41.2,3 41.2,25 0,21.8 -19.5,26.3 -37.7,26.3 -17.3,0 -43.3,-2.7 -43.3,-25.2 0.1,-22.3 22.1,-26.1 39.8,-26.1 z M 87.3,224 C 65.3,224 56,211 56,190.2 c 0,-49.3 61,-48.8 61,-0.5 0,20.3 -8,34.3 -29.7,34.3 z M 416,273.5 v 49 c -13.3,7.3 -30.5,9.8 -45.5,9.8 -53.5,0 -59.8,-42.2 -59.8,-85.7 v -87.7 h 0.5 v -1 c -7,0 -7.3,-1.6 -24,1 v -47.5 h 24 c 0,-22.3 0.3,-31 -1.5,-41.2 h 56.7 c -2,13.8 -1.5,27.5 -1.5,41.2 h 51 v 47.5 c 0,0 -19.3,-1 -51,-1 V 249 c 0,14.8 3.3,32.8 21.8,32.8 9.8,0 21.3,-2.8 29.3,-8.3 z M 270,36.7 c 0,18.7 -14.5,36.2 -33.8,36.2 -19.8,0 -34.5,-17.2 -34.5,-36.2 C 201.7,17.4 216.2,0 236.2,0 256,0 270,18 270,36.7 Z m -6.2,74.5 c -1.8,14.6 -1.6,199.8 0,217.8 h -55.5 c 1.6,-18.1 1.8,-203 0,-217.8 z"
     id="path10930"
     style="fill:#0189c7;fill-opacity:1"
     inkscape:connector-curvature="0" />
</svg>
