<?xml version="1.0" encoding="UTF-8" standalone="no"?>
<svg
   xmlns:dc="http://purl.org/dc/elements/1.1/"
   xmlns:cc="http://creativecommons.org/ns#"
   xmlns:rdf="http://www.w3.org/1999/02/22-rdf-syntax-ns#"
   xmlns:svg="http://www.w3.org/2000/svg"
   xmlns="http://www.w3.org/2000/svg"
   xmlns:sodipodi="http://sodipodi.sourceforge.net/DTD/sodipodi-0.dtd"
   xmlns:inkscape="http://www.inkscape.org/namespaces/inkscape"
   aria-hidden="true"
   data-prefix="fas"
   data-icon="graduation-cap"
   class="svg-inline--fa fa-graduation-cap fa-w-20"
   role="img"
   viewBox="0 0 640.00043 383.99976"
   version="1.1"
   id="svg7698"
   sodipodi:docname="graduation-cap-solid.svg"
   inkscape:version="0.92.2 5c3e80d, 2017-08-06"
   width="640.00043"
   height="383.99976">
  <metadata
     id="metadata7704">
    <rdf:RDF>
      <cc:Work
         rdf:about="">
        <dc:format>image/svg+xml</dc:format>
        <dc:type
           rdf:resource="http://purl.org/dc/dcmitype/StillImage" />
        <dc:title></dc:title>
      </cc:Work>
    </rdf:RDF>
  </metadata>
  <defs
     id="defs7702" />
  <sodipodi:namedview
     pagecolor="#ffffff"
     bordercolor="#666666"
     borderopacity="1"
     objecttolerance="10"
     gridtolerance="10"
     guidetolerance="10"
     inkscape:pageopacity="0"
     inkscape:pageshadow="2"
     inkscape:window-width="820"
     inkscape:window-height="480"
     id="namedview7700"
     showgrid="false"
     inkscape:zoom="0.4609375"
     inkscape:cx="320.00077"
     inkscape:cy="192"
     inkscape:window-x="201"
     inkscape:window-y="49"
     inkscape:window-maximized="0"
     inkscape:current-layer="svg7698"
     fit-margin-top="0"
     fit-margin-left="0"
     fit-margin-right="0"
     fit-margin-bottom="0" />
  <path
     d="m 622.88477,135.00475 -275.817,85.1 a 96,96 0 0 1 -54.134,0 l -200.534995,-61.873 c -8.564,11.438 -11.018,23.05 -11.918,38.335 9.298,5.598 15.52,15.788 15.52,27.433 0,11.952 -6.557,22.366 -16.265,27.861 l 16.197,123.096 c 0.63,4.786 -3.1,9.043 -7.932,9.043 h -48 c -4.828,0 -8.562,-4.253 -7.932,-9.044 l 16.197,-123.096 c -9.708,-5.494 -16.265,-15.908 -16.265,-27.86 0,-12.034 6.646,-22.511 16.465,-27.976 0.947,-17.951 3.974,-33.231 12.152,-47.597 l -43.502,-13.422 c -22.8760001,-6.801 -22.7660001,-39.241002 0,-46.010002 L 292.93277,3.8947476 a 96,96 0 0 1 54.134,0 l 275.817,85.1000004 c 22.877,6.801 22.767,39.241002 10e-4,46.010002 z m -266.381,115.677 -0.207,0.064 -0.207,0.061 a 127.998,127.998 0 0 1 -72.177,0 l -0.207,-0.061 -0.207,-0.064 -150.914,-46.57 -12.584,83.888 c 0,35.346 89.543,64 200,64 110.457,0 200,-28.654 200,-64 l -12.583,-83.888 z"
     id="path7696"
     style="fill:#0189c7;fill-opacity:1"
     inkscape:connector-curvature="0" />
</svg>
