<?xml version="1.0" encoding="UTF-8" standalone="no"?>
<svg
   xmlns:dc="http://purl.org/dc/elements/1.1/"
   xmlns:cc="http://creativecommons.org/ns#"
   xmlns:rdf="http://www.w3.org/1999/02/22-rdf-syntax-ns#"
   xmlns:svg="http://www.w3.org/2000/svg"
   xmlns="http://www.w3.org/2000/svg"
   xmlns:sodipodi="http://sodipodi.sourceforge.net/DTD/sodipodi-0.dtd"
   xmlns:inkscape="http://www.inkscape.org/namespaces/inkscape"
   aria-hidden="true"
   data-prefix="fab"
   data-icon="grunt"
   class="svg-inline--fa fa-grunt fa-w-12"
   role="img"
   viewBox="0 0 379.5 512.29999"
   version="1.1"
   id="svg12178"
   sodipodi:docname="grunt-brands.svg"
   inkscape:version="0.92.2 5c3e80d, 2017-08-06"
   width="379.5"
   height="512.29999">
  <metadata
     id="metadata12184">
    <rdf:RDF>
      <cc:Work
         rdf:about="">
        <dc:format>image/svg+xml</dc:format>
        <dc:type
           rdf:resource="http://purl.org/dc/dcmitype/StillImage" />
        <dc:title></dc:title>
      </cc:Work>
    </rdf:RDF>
  </metadata>
  <defs
     id="defs12182" />
  <sodipodi:namedview
     pagecolor="#ffffff"
     bordercolor="#666666"
     borderopacity="1"
     objecttolerance="10"
     gridtolerance="10"
     guidetolerance="10"
     inkscape:pageopacity="0"
     inkscape:pageshadow="2"
     inkscape:window-width="820"
     inkscape:window-height="480"
     id="namedview12180"
     showgrid="false"
     inkscape:zoom="0.4609375"
     inkscape:cx="189.7"
     inkscape:cy="256"
     inkscape:window-x="0"
     inkscape:window-y="27"
     inkscape:window-maximized="0"
     inkscape:current-layer="svg12178"
     fit-margin-top="0"
     fit-margin-left="0"
     fit-margin-right="0"
     fit-margin-bottom="0" />
  <path
     d="m 59,189.6 c -1.1,10 5.2,19.1 5.2,19.1 0.7,-7.5 2.2,-12.8 4,-16.6 0.4,10.3 3.2,23.5 12.8,34.1 6.9,7.6 35.6,23.3 54.9,6.1 1,2.4 2.1,5.3 3,8.5 2.9,10.3 -2.7,25.3 -2.7,25.3 0,0 15.1,-17.1 13.9,-32.5 10.8,-0.5 21.4,-8.4 21.1,-19.5 0,0 -18.9,10.4 -35.5,-8.8 -9.7,-11.2 -40.9,-42 -83.1,-31.8 4.3,1 8.9,2.4 13.5,4.1 H 66 c -4.2,2 -6.5,7.1 -7,12 z m 28.3,-1.8 c 19.5,11 37.4,25.7 44.9,37 -5.7,3.3 -21.7,10.4 -38,-1.7 -10.3,-7.6 -9.8,-26.2 -6.9,-35.3 z m 79.2,233.7 c 2.2,2.3 1.5,5.3 0.9,6.8 -1.1,2.7 -5.5,11.6 -13,19.8 -2.7,2.9 -6.6,4.6 -11,4.6 -4.3,0 -8.7,-1.6 -11.8,-4.3 -2.3,-2.1 -10.2,-9.5 -13.7,-18.6 -1.3,-3.4 -1,-6.1 0.9,-8.1 1.3,-1.3 4,-2.9 9.5,-2.9 h 29.4 c 4.1,0 7,0.9 8.8,2.7 z m 62.9,-187.9 c -1.2,15.5 13.9,32.5 13.9,32.5 0,0 -5.6,-15 -2.7,-25.3 0.9,-3.2 2,-6 3,-8.5 19.3,17.3 48,1.5 54.8,-6.1 9.6,-10.6 12.3,-23.8 12.8,-34.1 1.8,3.8 3.4,9.1 4,16.6 0,0 6.4,-9.1 5.2,-19.1 -0.6,-5 -2.9,-10 -7,-11.8 h -0.1 c 4.6,-1.8 9.2,-3.2 13.5,-4.1 -42.3,-10.2 -73.4,20.6 -83.1,31.8 -16.7,19.2 -35.5,8.8 -35.5,8.8 -0.2,10.9 10.4,18.9 21.2,19.3 z m 17.8,-8.8 c 7.5,-11.4 25.4,-26 44.9,-37 3,9.1 3.4,27.7 -7,35.4 -16.3,12.1 -32.2,5 -37.9,1.6 -0.1,0.1 0,0 0,0 z m 13.5,196.9 c 1.9,1.9 2.2,4.6 0.9,7.9 -3.5,8.9 -11.4,16.1 -13.7,18.1 -3.1,2.6 -7.4,4.2 -11.8,4.2 -4.4,0 -8.3,-1.6 -11,-4.5 -7.5,-8 -12,-16.7 -13,-19.3 -0.6,-1.5 -1.3,-4.4 0.9,-6.7 1.7,-1.8 4.7,-2.7 8.9,-2.7 h 29.4 c 5.4,0.1 8.1,1.7 9.4,3 z M 162.4,170.2 c 9.9,6 18.8,8.1 27.3,8.3 8.5,-0.2 17.4,-2.3 27.3,-8.3 0,0 -14.5,17.7 -27.2,17.8 h -0.2 c -12.7,-0.2 -27.2,-17.8 -27.2,-17.8 z m 184.5,147.4 c -2.4,17.9 -13,33.8 -24.6,43.7 -3.1,-22.7 -3.7,-55.5 -3.7,-62.4 0,-14.7 9.5,-24.5 12.2,-26.1 2.5,-1.5 5.4,-3 8.3,-4.6 18,-9.6 40.4,-21.6 40.4,-43.7 0,-16.2 -9.3,-23.2 -15.4,-27.8 -0.8,-0.6 -1.5,-1.1 -2.2,-1.7 -2.1,-1.7 -3.7,-3 -4.3,-4.4 -4.4,-9.8 -3.6,-34.2 -1.7,-37.6 0.6,-0.6 16.7,-20.9 11.8,-39.2 -2,-7.4 -6.9,-13.3 -14.1,-17 -5.3,-2.7 -11.9,-4.2 -19.5,-4.5 -0.1,-2 -0.5,-3.9 -0.9,-5.9 -0.6,-2.6 -1.1,-5.3 -0.9,-8.1 0.4,-4.7 0.8,-9 2.2,-11.3 8.4,-13.3 28.8,-17.6 29,-17.6 L 375.8,47 367.7,37.5 C 367.6,37.3 350.4,20 321.4,20 c -7.9,0 -16,1.3 -24.1,3.9 -24.2,7.8 -42.9,30.5 -49.4,39.3 -3.1,-1 -6.3,-1.9 -9.6,-2.7 -4.2,-15.8 9,-38.5 9,-38.5 0,0 -13.6,-3 -33.7,15.2 C 211,30.7 205.5,16.7 211.8,0 182.3,10.4 174.9,26.3 172.7,40.7 165.1,35.3 166,17.6 165.5,13.1 158,14 136.3,35 137.3,61.4 c -2,0.5 -3.9,1.1 -5.9,1.7 C 124.9,54.3 106.3,31.6 82,23.8 74.1,21.6 66,20.3 58.1,20.3 29.1,20.3 12,37.6 11.8,37.8 L 3.7,47.2 16,49.6 c 0.2,0 20.6,4.3 29,17.6 1.4,2.2 1.8,6.6 2.2,11.3 0.2,2.8 -0.4,5.5 -0.9,8.1 -0.4,1.9 -0.8,3.9 -0.9,5.9 -7.7,0.3 -14.2,1.8 -19.5,4.5 -7.2,3.7 -12.1,9.6 -14.1,17 -5,18.2 11.2,38.5 11.8,39.2 1.9,3.4 2.7,27.8 -1.7,37.6 -0.6,1.4 -2.2,2.7 -4.3,4.4 -0.7,0.5 -1.4,1.1 -2.2,1.7 C 9.3,201.5 0,208.6 0,224.7 c 0,22.1 22.4,34.1 40.4,43.7 3,1.6 5.8,3.1 8.3,4.6 2.7,1.6 12.2,11.4 12.2,26.1 0,6.9 -0.6,39.7 -3.7,62.4 -11.6,-9.9 -22.2,-25.9 -24.6,-43.8 0,0 -29.2,22.6 -20.6,70.8 5.2,29.5 23.2,46.1 47,54.7 8.8,19.1 29.4,45.7 67.3,49.6 14.4,11.8 34.4,19.5 63.6,19.5 h 0.2 c 29.1,0 49.1,-7.7 63.6,-19.5 37.9,-3.9 58.5,-30.5 67.3,-49.6 23.8,-8.7 41.7,-25.2 47,-54.7 8.2,-48.4 -21.1,-70.9 -21.1,-70.9 z M 303.4,38 c 5.6,-1.8 11.6,-2.7 17.7,-2.7 11,0 19.9,3 24.7,5 -3.1,1.4 -6.4,3.2 -9.7,5.3 -2.4,-0.4 -5.6,-0.8 -9.2,-0.8 -10.5,0 -20.5,3.1 -28.7,8.9 -12.3,8.7 -18,16.9 -20.7,22.4 -2.2,-1.3 -4.5,-2.5 -7.1,-3.7 -1.6,-0.8 -3.1,-1.5 -4.7,-2.2 6.1,-9.1 19.9,-26.5 37.7,-32.2 z m 21,18.2 c -0.8,1 -1.6,2.1 -2.3,3.2 -3.3,5.2 -3.9,11.6 -4.4,17.8 -0.5,6.4 -1.1,12.5 -4.4,17 -4.2,0.8 -8.1,1.7 -11.5,2.7 -2.3,-3.1 -5.6,-7 -10.5,-11.2 1.4,-4.8 5.5,-16.1 13.5,-22.5 5.6,-4.3 12.2,-6.7 19.6,-7 z M 43.3,45.6 c -3.3,-2.2 -6.6,-4 -9.7,-5.3 4.8,-2 13.7,-5 24.7,-5 6.1,0 12,0.9 17.7,2.7 17.8,5.8 31.6,23.2 37.7,32.1 -1.6,0.7 -3.2,1.4 -4.8,2.2 -2.5,1.2 -4.9,2.5 -7.1,3.7 C 99.2,70.6 93.5,62.3 81.1,53.6 72.8,47.8 62.9,44.7 52.3,44.7 c -3.4,0.1 -6.6,0.5 -9,0.9 z M 88,85.7 c -4.9,4.2 -8.3,8 -10.5,11.2 C 74.1,96 70.2,95 66,94.2 62.7,89.8 62.2,83.7 61.7,77.3 61.2,71.1 60.6,64.7 57.3,59.5 56.6,58.4 55.8,57.3 55,56.3 c 7.4,0.3 14,2.6 19.5,7 8,6.3 12.1,17.6 13.5,22.4 z M 55.8,260.2 c -2.7,-1.6 -5.6,-3.1 -8.4,-4.6 -14.9,-8 -30.2,-16.3 -30.2,-30.5 0,-11.1 4.3,-14.6 8.9,-18.2 l 0.5,-0.4 c 0.7,-0.6 1.4,-1.2 2.2,-1.8 -0.9,7.2 -1.9,13.3 -2.7,14.9 0,0 12.1,-15 15.7,-44.3 1.4,-11.5 -1.1,-34.3 -5.1,-43 0.2,4.9 0,9.8 -0.3,14.4 -0.4,-0.8 -0.8,-1.6 -1.3,-2.2 -3.2,-4 -11.8,-17.5 -9.4,-26.6 0.9,-3.5 3.1,-6 6.7,-7.8 3.8,-1.9 8.8,-2.9 15.1,-2.9 12.3,0 25.9,3.7 32.9,6 25.1,8 55.4,30.9 64.1,37.7 0.2,0.2 0.4,0.3 0.4,0.3 l 5.6,3.9 -3.5,-5.8 c -0.2,-0.3 -19.1,-31.4 -53.2,-46.5 2,-2.9 7.4,-8.1 21.6,-15.1 21.4,-10.5 46.5,-15.8 74.3,-15.8 27.9,0 52.9,5.3 74.3,15.8 14.2,6.9 19.6,12.2 21.6,15.1 -34,15.1 -52.9,46.2 -53.1,46.5 l -3.5,5.8 5.6,-3.9 c 0,0 0.2,-0.1 0.4,-0.3 8.7,-6.8 39,-29.8 64.1,-37.7 7,-2.2 20.6,-6 32.9,-6 6.3,0 11.3,1 15.1,2.9 3.5,1.8 5.7,4.4 6.7,7.8 2.5,9.1 -6.1,22.6 -9.4,26.6 -0.5,0.6 -0.9,1.3 -1.3,2.2 -0.3,-4.6 -0.5,-9.5 -0.3,-14.4 -4,8.8 -6.5,31.5 -5.1,43 3.6,29.3 15.7,44.3 15.7,44.3 -0.8,-1.6 -1.8,-7.7 -2.7,-14.9 0.7,0.6 1.5,1.2 2.2,1.8 l 0.5,0.4 c 4.6,3.7 8.9,7.1 8.9,18.2 0,14.2 -15.4,22.5 -30.2,30.5 -2.9,1.5 -5.7,3.1 -8.4,4.6 -8.7,5 -18,16.7 -19.1,34.2 -0.9,14.6 0.9,49.9 3.4,75.9 -12.4,4.8 -26.7,6.4 -39.7,6.8 -2,-4.1 -3.9,-8.5 -5.5,-13.1 -0.7,-2 -19.6,-51.1 -26.4,-62.2 5.5,39 17.5,73.7 23.5,89.6 -3.5,-0.5 -7.3,-0.7 -11.7,-0.7 h -117 c -4.4,0 -8.3,0.3 -11.7,0.7 6,-15.9 18.1,-50.6 23.5,-89.6 -6.8,11.2 -25.7,60.3 -26.4,62.2 -1.6,4.6 -3.5,9 -5.5,13.1 -13,-0.4 -27.2,-2 -39.7,-6.8 2.5,-26 4.3,-61.2 3.4,-75.9 C 73.9,277 64.5,265.2 55.8,260.2 Z M 32.5,404.9 c -12.1,-20 -8.7,-54.1 -3.7,-59.1 10.9,34.4 47.2,44.3 74.4,45.4 -2.7,4.2 -5.2,7.6 -7,10 l -1.4,1.4 c -7.2,7.8 -8.6,18.5 -4.1,31.8 C 68,434.3 44.4,424.6 32.5,404.9 Z m 45.7,43.5 c 6,1.1 12.2,1.9 18.6,2.4 3.5,8 7.4,15.9 12.3,23.1 -14.4,-5.9 -24.4,-16 -30.9,-25.5 z m 111.5,50.1 c -60.6,-0.1 -78.3,-45.8 -84.9,-64.7 -3.7,-10.5 -3.4,-18.2 0.9,-23.1 2.9,-3.3 9.5,-7.2 24.6,-7.2 h 118.8 c 15.1,0 21.8,3.9 24.6,7.2 4.2,4.8 4.5,12.6 0.9,23.1 -6.6,18.8 -24.3,64.6 -84.9,64.7 z m 80.6,-24.6 c 4.9,-7.2 8.8,-15.1 12.3,-23.1 6.4,-0.5 12.6,-1.3 18.6,-2.4 -6.5,9.5 -16.5,19.6 -30.9,25.5 z m 76.6,-69 c -12,19.7 -35.6,29.3 -58.1,29.7 4.5,-13.3 3.1,-24.1 -4.1,-31.8 -0.4,-0.5 -0.9,-1 -1.4,-1.5 -1.8,-2.4 -4.3,-5.8 -7,-10 27.2,-1.2 63.5,-11 74.4,-45.4 5,5 8.4,39.1 -3.8,59 z"
     id="path12176"
     style="fill:#0189c7;fill-opacity:1"
     inkscape:connector-curvature="0" />
</svg>
