<?xml version="1.0" encoding="UTF-8" standalone="no"?>
<svg
   xmlns:dc="http://purl.org/dc/elements/1.1/"
   xmlns:cc="http://creativecommons.org/ns#"
   xmlns:rdf="http://www.w3.org/1999/02/22-rdf-syntax-ns#"
   xmlns:svg="http://www.w3.org/2000/svg"
   xmlns="http://www.w3.org/2000/svg"
   xmlns:sodipodi="http://sodipodi.sourceforge.net/DTD/sodipodi-0.dtd"
   xmlns:inkscape="http://www.inkscape.org/namespaces/inkscape"
   aria-hidden="true"
   data-prefix="fab"
   data-icon="js"
   class="svg-inline--fa fa-js fa-w-14"
   role="img"
   viewBox="0 0 448 448"
   version="1.1"
   id="svg887"
   sodipodi:docname="js-brands.svg"
   width="448"
   height="448"
   inkscape:version="0.92.2 5c3e80d, 2017-08-06">
  <metadata
     id="metadata893">
    <rdf:RDF>
      <cc:Work
         rdf:about="">
        <dc:format>image/svg+xml</dc:format>
        <dc:type
           rdf:resource="http://purl.org/dc/dcmitype/StillImage" />
        <dc:title></dc:title>
      </cc:Work>
    </rdf:RDF>
  </metadata>
  <defs
     id="defs891" />
  <sodipodi:namedview
     pagecolor="#ffffff"
     bordercolor="#666666"
     borderopacity="1"
     objecttolerance="10"
     gridtolerance="10"
     guidetolerance="10"
     inkscape:pageopacity="0"
     inkscape:pageshadow="2"
     inkscape:window-width="1920"
     inkscape:window-height="1016"
     id="namedview889"
     showgrid="false"
     fit-margin-top="0"
     fit-margin-left="0"
     fit-margin-right="0"
     fit-margin-bottom="0"
     inkscape:zoom="1.6074219"
     inkscape:cx="224"
     inkscape:cy="224"
     inkscape:window-x="0"
     inkscape:window-y="27"
     inkscape:window-maximized="1"
     inkscape:current-layer="svg887" />
  <path
     d="M 0,0 V 448 H 448 V 0 Z m 243.8,349.4 c 0,43.6 -25.6,63.5 -62.9,63.5 -33.7,0 -53.2,-17.4 -63.2,-38.5 L 152,353.7 c 6.6,11.7 12.6,21.6 27.1,21.6 13.8,0 22.6,-5.4 22.6,-26.5 V 205.7 h 42.1 z m 99.6,63.5 c -39.1,0 -64.4,-18.6 -76.7,-43 L 301,350.1 c 9,14.7 20.8,25.6 41.5,25.6 17.4,0 28.6,-8.7 28.6,-20.8 0,-14.4 -11.4,-19.5 -30.7,-28 l -10.5,-4.5 c -30.4,-12.9 -50.5,-29.2 -50.5,-63.5 0,-31.6 24.1,-55.6 61.6,-55.6 26.8,0 46,9.3 59.8,33.7 L 368,258 c -7.2,-12.9 -15,-18 -27.1,-18 -12.3,0 -20.1,7.8 -20.1,18 0,12.6 7.8,17.7 25.9,25.6 l 10.5,4.5 c 35.8,15.3 55.9,31 55.9,66.2 0,37.8 -29.8,58.6 -69.7,58.6 z"
     id="path885"
     style="fill:#0189c7;fill-opacity:1"
     inkscape:connector-curvature="0" />
</svg>
