<?xml version="1.0" encoding="UTF-8" standalone="no"?>
<!-- Created with Inkscape (http://www.inkscape.org/) -->

<svg
   xmlns:dc="http://purl.org/dc/elements/1.1/"
   xmlns:cc="http://creativecommons.org/ns#"
   xmlns:rdf="http://www.w3.org/1999/02/22-rdf-syntax-ns#"
   xmlns:svg="http://www.w3.org/2000/svg"
   xmlns="http://www.w3.org/2000/svg"
   xmlns:xlink="http://www.w3.org/1999/xlink"
   xmlns:sodipodi="http://sodipodi.sourceforge.net/DTD/sodipodi-0.dtd"
   xmlns:inkscape="http://www.inkscape.org/namespaces/inkscape"
   width="204mm"
   height="16mm"
   viewBox="0 0 204 16"
   version="1.1"
   id="svg1568"
   inkscape:version="0.92.2 5c3e80d, 2017-08-06"
   sodipodi:docname="note-code.svg"
   inkscape:export-filename="/home/renaud/Documents/save-cv/cv-2.0-class/images/note-html.png"
   inkscape:export-xdpi="96"
   inkscape:export-ydpi="96">
  <defs
     id="defs1562" />
  <sodipodi:namedview
     id="base"
     pagecolor="#ffffff"
     bordercolor="#666666"
     borderopacity="1.0"
     inkscape:pageopacity="0.0"
     inkscape:pageshadow="2"
     inkscape:zoom="1.055724"
     inkscape:cx="376.12443"
     inkscape:cy="-92.604261"
     inkscape:document-units="mm"
     inkscape:current-layer="layer1"
     showgrid="false"
     inkscape:window-width="1920"
     inkscape:window-height="1016"
     inkscape:window-x="0"
     inkscape:window-y="27"
     inkscape:window-maximized="1"
     fit-margin-top="0"
     fit-margin-left="0"
     fit-margin-right="0"
     fit-margin-bottom="0"
     showguides="true"
     inkscape:guide-bbox="true" />
  <metadata
     id="metadata1565">
    <rdf:RDF>
      <cc:Work
         rdf:about="">
        <dc:format>image/svg+xml</dc:format>
        <dc:type
           rdf:resource="http://purl.org/dc/dcmitype/StillImage" />
        <dc:title></dc:title>
      </cc:Work>
    </rdf:RDF>
  </metadata>
  <g
     inkscape:label="Calque 1"
     inkscape:groupmode="layer"
     id="layer1"
     transform="translate(0,-281)"
     style="display:inline">
    <rect
       style="display:inline;fill:none;fill-opacity:1;stroke:none;stroke-width:5.38018227;stroke-miterlimit:4;stroke-dasharray:none;stroke-opacity:1"
       id="rect5939"
       width="204"
       height="16"
       x="0"
       y="281"
       inkscape:export-xdpi="96"
       inkscape:export-ydpi="96" />
    <path
       style="fill:#0189c7;fill-opacity:1;stroke:none;stroke-width:4.05517292;stroke-miterlimit:4;stroke-dasharray:none;stroke-opacity:1"
       d="m 12.18899,289 a 6.0000004,6.0000004 0 0 1 -6.0000004,6 6.0000004,6.0000004 0 0 1 -6.00000008,-6 6.0000004,6.0000004 0 0 1 6.00000008,-6 6.0000004,6.0000004 0 0 1 6.0000004,6 z"
       id="path2113"
       inkscape:connector-curvature="0"
       inkscape:export-xdpi="96"
       inkscape:export-ydpi="96" />
    <path
       style="fill:#0189c7;fill-opacity:1;stroke:none;stroke-width:4.05517292;stroke-miterlimit:4;stroke-dasharray:none;stroke-opacity:1"
       d="m 97.38078,289 a 6.0000004,6.0000004 0 0 1 -6,6 6.0000004,6.0000004 0 0 1 -6,-6 6.0000004,6.0000004 0 0 1 6,-6 6.0000004,6.0000004 0 0 1 6,6 z"
       id="path2113-3"
       inkscape:connector-curvature="0"
       inkscape:export-xdpi="96"
       inkscape:export-ydpi="96" />
    <path
       style="fill:#0189c7;fill-opacity:1;stroke:none;stroke-width:4.05517292;stroke-miterlimit:4;stroke-dasharray:none;stroke-opacity:1"
       d="m 161.27463,289 a 6.0000004,6.0000004 0 0 1 -6,6 6.0000004,6.0000004 0 0 1 -6,-6 6.0000004,6.0000004 0 0 1 6,-6 6.0000004,6.0000004 0 0 1 6,6 z"
       id="path2113-6"
       inkscape:connector-curvature="0"
       inkscape:export-xdpi="96"
       inkscape:export-ydpi="96" />
    <path
       style="fill:#0189c7;fill-opacity:1;stroke:none;stroke-width:4.05517292;stroke-miterlimit:4;stroke-dasharray:none;stroke-opacity:1"
       d="m 139.97668,289 a 6.0000004,6.0000004 0 0 1 -6,6 6.0000004,6.0000004 0 0 1 -6,-6 6.0000004,6.0000004 0 0 1 6,-6 6.0000004,6.0000004 0 0 1 6,6 z"
       id="path2113-7"
       inkscape:connector-curvature="0"
       inkscape:export-xdpi="96"
       inkscape:export-ydpi="96" />
    <path
       style="fill:#0189c7;fill-opacity:1;stroke:none;stroke-width:4.05517292;stroke-miterlimit:4;stroke-dasharray:none;stroke-opacity:1"
       d="m 76.082836,289 a 6.0000004,6.0000004 0 0 1 -6,6 6.0000004,6.0000004 0 0 1 -6,-6 6.0000004,6.0000004 0 0 1 6,-6 6.0000004,6.0000004 0 0 1 6,6 z"
       id="path2113-5"
       inkscape:connector-curvature="0"
       inkscape:export-xdpi="96"
       inkscape:export-ydpi="96" />
    <path
       style="fill:#0189c7;fill-opacity:1;stroke:none;stroke-width:4.05517292;stroke-miterlimit:4;stroke-dasharray:none;stroke-opacity:1"
       d="m 54.784884,289 a 6.0000004,6.0000004 0 0 1 -6,6 6.0000004,6.0000004 0 0 1 -6,-6 6.0000004,6.0000004 0 0 1 6,-6 6.0000004,6.0000004 0 0 1 6,6 z"
       id="path2113-35"
       inkscape:connector-curvature="0"
       inkscape:export-xdpi="96"
       inkscape:export-ydpi="96" />
    <path
       style="fill:#0189c7;fill-opacity:1;stroke:none;stroke-width:4.05517292;stroke-miterlimit:4;stroke-dasharray:none;stroke-opacity:1"
       d="m 33.486939,289 a 6.0000004,6.0000004 0 0 1 -6.000001,6 6.0000004,6.0000004 0 0 1 -6,-6 6.0000004,6.0000004 0 0 1 6,-6 6.0000004,6.0000004 0 0 1 6.000001,6 z"
       id="path2113-62"
       inkscape:connector-curvature="0"
       inkscape:export-xdpi="96"
       inkscape:export-ydpi="96" />
    <path
       style="fill:#0189c7;fill-opacity:1;stroke:none;stroke-width:4.05517292;stroke-miterlimit:4;stroke-dasharray:none;stroke-opacity:1"
       d="m 118.67873,289 a 6.0000004,6.0000004 0 0 1 -6,6 6.0000004,6.0000004 0 0 1 -6,-6 6.0000004,6.0000004 0 0 1 6,-6 6.0000004,6.0000004 0 0 1 6,6 z"
       id="path2113-9"
       inkscape:connector-curvature="0"
       inkscape:export-xdpi="96"
       inkscape:export-ydpi="96" />
    <path
       style="fill:#afafb1;fill-opacity:1;stroke:none;stroke-width:4.05517292;stroke-miterlimit:4;stroke-dasharray:none;stroke-opacity:1"
       d="m 182.57258,289 a 6.0000004,6.0000004 0 0 1 -6,6 6.0000004,6.0000004 0 0 1 -6,-6 6.0000004,6.0000004 0 0 1 6,-6 6.0000004,6.0000004 0 0 1 6,6 z"
       id="path2113-1"
       inkscape:connector-curvature="0"
       inkscape:export-xdpi="96"
       inkscape:export-ydpi="96" />
    <path
       style="fill:#afafb1;fill-opacity:1;stroke:none;stroke-width:4.05517292;stroke-miterlimit:4;stroke-dasharray:none;stroke-opacity:1"
       d="m 203.87054,289 a 6.0000004,6.0000004 0 0 1 -6,6 6.0000004,6.0000004 0 0 1 -6,-6 6.0000004,6.0000004 0 0 1 6,-6 6.0000004,6.0000004 0 0 1 6,6 z"
       id="path2113-2"
       inkscape:connector-curvature="0"
       inkscape:export-xdpi="96"
       inkscape:export-ydpi="96" />
  </g>
  <g
     inkscape:groupmode="layer"
     id="layer2"
     inkscape:label="Calque 2"
     style="display:inline"
     sodipodi:insensitive="true"
     transform="translate(0,12)">
    <image
       sodipodi:absref="/home/renaud/Bureau/Capture dՎcran de 2018-07-22 19-24-10.png"
       y="13.170927"
       x="-89.169434"
       id="image5917"
       xlink:href="file:///home/renaud/Bureau/Capture%20d%E2%80%99%C3%A9cran%20de%202018-07-22%2019-24-10.png"
       preserveAspectRatio="none"
       height="89.958336"
       width="185.20833" />
  </g>
</svg>
