<?xml version="1.0" encoding="UTF-8" standalone="no"?>
<svg
   xmlns:dc="http://purl.org/dc/elements/1.1/"
   xmlns:cc="http://creativecommons.org/ns#"
   xmlns:rdf="http://www.w3.org/1999/02/22-rdf-syntax-ns#"
   xmlns:svg="http://www.w3.org/2000/svg"
   xmlns="http://www.w3.org/2000/svg"
   xmlns:sodipodi="http://sodipodi.sourceforge.net/DTD/sodipodi-0.dtd"
   xmlns:inkscape="http://www.inkscape.org/namespaces/inkscape"
   aria-hidden="true"
   data-prefix="fab"
   data-icon="sass"
   class="svg-inline--fa fa-sass fa-w-20"
   role="img"
   viewBox="0 0 640.18207 480.03912"
   version="1.1"
   id="svg9686"
   sodipodi:docname="sass-brands.svg"
   width="640.18207"
   height="480.03912"
   inkscape:version="0.92.2 5c3e80d, 2017-08-06">
  <metadata
     id="metadata9692">
    <rdf:RDF>
      <cc:Work
         rdf:about="">
        <dc:format>image/svg+xml</dc:format>
        <dc:type
           rdf:resource="http://purl.org/dc/dcmitype/StillImage" />
        <dc:title></dc:title>
      </cc:Work>
    </rdf:RDF>
  </metadata>
  <defs
     id="defs9690" />
  <sodipodi:namedview
     pagecolor="#ffffff"
     bordercolor="#666666"
     borderopacity="1"
     objecttolerance="10"
     gridtolerance="10"
     guidetolerance="10"
     inkscape:pageopacity="0"
     inkscape:pageshadow="2"
     inkscape:window-width="820"
     inkscape:window-height="480"
     id="namedview9688"
     showgrid="false"
     fit-margin-top="0"
     fit-margin-left="0"
     fit-margin-right="0"
     fit-margin-bottom="0"
     inkscape:zoom="0.4609375"
     inkscape:cx="320.02599"
     inkscape:cy="240.02335"
     inkscape:window-x="411"
     inkscape:window-y="123"
     inkscape:window-maximized="0"
     inkscape:current-layer="svg9686" />
  <path
     d="m 551.12599,275.91576 c -22.4,0.1 -41.8,5.5 -58,13.5 -5.9,-11.9 -12,-22.3 -13,-30.1 -1.2,-9.1 -2.5,-14.5 -1.1,-25.3 1.4,-10.8 7.7,-26.1 7.6,-27.2 -0.1,-1.1 -1.4,-6.6 -14.3,-6.7 -12.9,-0.1 -24,2.5 -25.3,5.9 -1.3,3.4 -3.8,11.1 -5.3,19.1 -2.3,11.7 -25.8,53.5 -39.1,75.3 -4.4,-8.5 -8.1,-16 -8.9,-22 -1.2,-9.1 -2.5,-14.5 -1.1,-25.3 1.4,-10.8 7.7,-26.1 7.6,-27.2 -0.1,-1.1 -1.4,-6.6 -14.3,-6.7 -12.9,-0.1 -24,2.5 -25.3,5.9 -1.3,3.4 -2.7,11.4 -5.3,19.1 -2.6,7.7 -33.9,77.3 -42.1,95.4 -4.2,9.2 -7.8,16.6 -10.4,21.6 -2.6,5 -0.2,0.3 -0.4,0.9 -2.2,4.3 -3.5,6.7 -3.5,6.7 v 0.1 c -1.7,3.2 -3.6,6.1 -4.5,6.1 -0.6,0 -1.9,-8.4 0.3,-19.9 4.7,-24.2 15.8,-61.8 15.7,-63.1 -0.1,-0.7 2.1,-7.2 -7.3,-10.7 -9.1,-3.3 -12.4,2.2 -13.2,2.2 -0.8,0 -1.4,2 -1.4,2 0,0 10.1,-42.4 -19.4,-42.4 -18.4,0 -44,20.2 -56.6,38.5 -7.9,4.3 -25,13.6 -43,23.5 -6.9,3.8 -14,7.7 -20.7,11.4 -0.5,-0.5 -0.9,-1 -1.4,-1.5 -35.8,-38.2 -101.899998,-65.2 -99.099998,-116.5 1,-18.7 7.5,-67.8 127.099998,-127.400003 98,-48.8 176.4,-35.4 189.9,-5.6 19.4,42.500003 -41.9,121.600003 -143.7,133.000003 -38.8,4.3 -59.2,-10.7 -64.3,-16.3 -5.3,-5.9 -6.1,-6.2 -8.1,-5.1 -3.3,1.8 -1.2,7 0,10.1 3,7.9 15.5,21.9 36.8,28.9 18.7,6.1 64.2,9.5 119.2,-11.8 61.8,-23.8 109.9,-90.1 95.8,-145.600003 -14.4,-56.4000005 -107.9,-74.9 -196.4,-43.5 -52.7,18.7 -109.699998,48.1 -150.699998,86.400003 -48.7000004,45.6 -56.5000004,85.3 -53.3000004,101.9 11.4000004,58.9 92.6000004,97.3 125.0999984,125.7 -1.6,0.9 -3.1,1.7 -4.5,2.5 -16.3,8.1 -78.199998,40.5 -93.699998,74.7 -17.5,38.8 2.9,66.6 16.3,70.4 41.8,11.6 84.599998,-9.3 107.599998,-43.6 23,-34.3 20.2,-79.1 9.6,-99.5 -0.1,-0.3 -0.3,-0.5 -0.4,-0.8 4.2,-2.5 8.5,-5 12.8,-7.5 8.3,-4.9 16.4,-9.4 23.5,-13.3 -4,10.8 -6.9,23.8 -8.4,42.6 -1.8,22 7.3,50.5 19.1,61.7 5.2,4.9 11.5,5 15.4,5 13.8,0 20,-11.4 26.9,-25 8.5,-16.6 16,-35.9 16,-35.9 0,0 -9.4,52.2 16.3,52.2 9.4,0 18.8,-12.1 23,-18.3 v 0.1 c 0,0 0.2,-0.4 0.7,-1.2 1,-1.5 1.5,-2.4 1.5,-2.4 v -0.3 c 3.8,-6.5 12.1,-21.4 24.6,-46 16.2,-31.8 31.7,-71.5 31.7,-71.5 0,0 1.4,9.7 6.2,25.8 2.8,9.5 8.7,19.9 13.4,30 -3.8,5.2 -6.1,8.2 -6.1,8.2 0,0 0,0.1 0.1,0.2 -3,4 -6.4,8.3 -9.9,12.5 -12.8,15.2 -28,32.6 -30,37.6 -2.4,5.9 -1.8,10.3 2.8,13.7 3.4,2.6 9.4,3 15.7,2.5 11.5,-0.8 19.6,-3.6 23.5,-5.4 6.2,-2.2 13.4,-5.7 20.2,-10.6 12.5,-9.2 20.1,-22.4 19.4,-39.8 -0.4,-9.6 -3.5,-19.2 -7.3,-28.2 1.1,-1.6 2.3,-3.3 3.4,-5 19.8,-28.9 35.1,-60.6 35.1,-60.6 0,0 1.4,9.7 6.2,25.8 2.4,8.1 7.1,17 11.4,25.7 -18.6,15.1 -30.1,32.6 -34.1,44.1 -7.4,21.3 -1.6,30.9 9.3,33.1 4.9,1 11.9,-1.3 17.1,-3.5 6.5,-2.2 14.3,-5.7 21.6,-11.1 12.5,-9.2 24.6,-22.1 23.8,-39.6 -0.3,-7.9 -2.5,-15.8 -5.4,-23.4 15.7,-6.6 36.1,-10.2 62.1,-7.2 55.7,6.5 66.6,41.3 64.5,55.8 -2.1,14.6 -13.8,22.6 -17.7,25 -3.9,2.4 -5.1,3.3 -4.8,5.1 0.5,2.6 2.3,2.5 5.6,1.9 4.6,-0.8 29.2,-11.8 30.3,-38.7 1.6,-34 -31.1,-71.4 -89,-71.1 z m -429.3,144.7 c -18.4,20.1 -44.199998,27.7 -55.299998,21.3 -11.9,-6.9 -7.2,-36.5 15.5,-57.9 13.8,-13 31.599998,-25 43.399998,-32.4 2.7,-1.6 6.6,-4 11.4,-6.9 0.8,-0.5 1.2,-0.7 1.2,-0.7 0.9,-0.6 1.9,-1.1 2.9,-1.7 8.3,30.4 0.3,57.2 -19.1,78.3 z m 134.4,-91.4 c -6.4,15.7 -19.9,55.7 -28.1,53.6 -7,-1.8 -11.3,-32.3 -1.4,-62.3 5,-15.1 15.6,-33.1 21.9,-40.1 10.1,-11.3 21.2,-14.9 23.8,-10.4 3.5,5.9 -12.2,49.4 -16.2,59.2 z m 111,53 c -2.7,1.4 -5.2,2.3 -6.4,1.6 -0.9,-0.5 1.1,-2.4 1.1,-2.4 0,0 13.9,-14.9 19.4,-21.7 3.2,-4 6.9,-8.7 10.9,-13.9 0,0.5 0.1,1 0.1,1.6 -0.1,17.9 -17.3,30 -25.1,34.8 z m 85.6,-19.5 c -2,-1.4 -1.7,-6.1 5,-20.7 2.6,-5.7 8.6,-15.3 19,-24.5 1.2,3.8 1.9,7.4 1.9,10.8 -0.1,22.5 -16.2,30.9 -25.9,34.4 z"
     id="path9684"
     style="fill:#0189c7;fill-opacity:1"
     inkscape:connector-curvature="0" />
</svg>
